# xmcd
#
# Track frame offsets:
#	150
#	13043
#	27040
#	43858
#	57208
#	71755
#	88613
#	106213
#	123655
#	142730
#	156823
#	170565
#	187365
#	205490
#	220310
#	234750
#	249638
#	264283
#	277885
#	294960
#	295710
#	296460
#	297213
#
# Disc length: 4284 seconds
#
# Revision: 0
# Processed by: cddbd v1.5.2PL0 Copyright (c) Steve Scherf et al.
# Submitted via: EasyCDDAExtractor 7.1.2.1
#
DISCID=5a10ba17
DTITLE=Various Artist - TM Century - Gold Disc 1131
DYEAR=1900
DGENRE=Country
TTITLE0=Dwight Yoakum - Honky Tonk Man
TTITLE1=Aaron Tippin - You've Got To Stand For Something
TTITLE2=Kathy Mattea - Love At The Five and Dime
TTITLE3=Lee Greenwood - Touch And Go Crazy
TTITLE4=Dan Seals - One Friend
TTITLE5=Eddy Raven - Sonner Or Later
TTITLE6=The Eagles - Take It To The Limit
TTITLE7=Suzy Bogguss - Cross My Broken Heart
TTITLE8=Kenny Rogers - Morning Desire
TTITLE9=Hank Williams, Jr. - Good Friends, Good Whiskey, Good Lovin'
TTITLE10=Waylon Jennings - Wrong
TTITLE11=Mark Gary and Tammy Wynette - Sometimes When We Touch
TTITLE12=Alabama - Dixieland Delight
TTITLE13=Eddie Rabbitt - American Boy
TTITLE14=T.G. Sheppard - Somewhere Down The Line
TTITLE15=Tanya Tucker duet with T. Graham Brown - Don't Go Out
TTITLE16=Don Williams - Listen To The Radio
TTITLE17=Carlene Carter - Come On Back
TTITLE18=Nitty Gritty Dirt Band - Stand A Little Rain
TTITLE19=blank - blank
TTITLE20=blank - blank
TTITLE21=blank - blank
TTITLE22=Alabama - Dixieland Delight (album version)
EXTD=
EXTT0=
EXTT1=
EXTT2=
EXTT3=
EXTT4=
EXTT5=
EXTT6=
EXTT7=
EXTT8=
EXTT9=
EXTT10=
EXTT11=
EXTT12=
EXTT13=
EXTT14=
EXTT15=
EXTT16=
EXTT17=
EXTT18=
EXTT19=
EXTT20=
EXTT21=
EXTT22=
PLAYORDER=
